<svg width="27" height="49" viewBox="0 0 27 49" fill="none" xmlns="http://www.w3.org/2000/svg">
<path d="M3 40.3369V40.0009L6.024 37.2649L6.36 37.5049C6.792 41.2489 9.528 44.2729 13.56 44.3209C17.208 44.3209 21 41.7769 21 37.7449C21 27.8569 4.104 29.8729 4.104 20.0809C4.104 15.3289 8.232 12.5449 13.08 12.5449C16.776 12.5449 20.04 14.0809 22.68 17.2009V17.4889L20.184 20.0329L19.8 19.7929C19.464 16.2409 16.632 13.5529 12.888 13.5529C9.576 13.5529 6.6 15.4729 6.6 18.6889C6.6 27.3769 23.784 25.6489 23.784 36.2569C23.784 42.0169 18.648 45.3289 13.368 45.3289C9.192 45.3289 5.592 43.5049 3 40.3369Z" fill="#7A6653"/>
<path d="M15.5509 10.048H14.4949L11.7109 4.096L11.8069 4H14.2549L14.3509 4.096L15.5509 10.048Z" fill="#7A6653"/>
</svg>
