<svg width="123" height="42" viewBox="0 0 123 42" fill="none" xmlns="http://www.w3.org/2000/svg">
<g clip-path="url(#clip0_537_1130)">
<path d="M115.754 6.048H114.698L111.914 0.0960016L112.01 0H114.458L114.554 0.0960016L115.754 6.048ZM106.538 13.008C106.538 9.504 104.666 9.168 104.09 9.168V8.976H121.082C121.802 8.976 122.666 8.928 122.666 8.448H122.858V13.968H122.666C122.666 12.864 121.562 9.936 117.482 9.936H109.514V24.432H114.986C118.154 24.432 119.258 22.752 119.258 21.696H119.402V28.128H119.21C119.258 27.072 118.154 25.392 114.938 25.392H109.514V39.936H117.482C121.562 39.936 122.666 37.008 122.666 35.856H122.858V41.424H122.666C122.666 40.944 121.802 40.896 121.082 40.896H104.09V40.704C104.666 40.704 106.538 40.368 106.538 36.864V13.008Z" fill="#F8F6F3"/>
<path d="M94.7606 26.0169H102.633V26.2089C102.057 26.2089 100.233 26.5449 100.233 30.0969V41.9049L99.8966 42.0489C99.6566 41.1849 99.2726 39.8889 98.1686 39.8889C96.4886 39.8889 95.9606 41.3289 91.2566 41.3289C83.5286 41.3289 76.8086 34.3689 76.8086 24.9609C76.8086 15.8889 82.8086 8.54492 90.2966 8.54492C95.0486 8.54492 98.8886 11.1369 100.905 14.9289L100.761 15.2649L97.3046 15.9849L97.1126 15.6969C96.7766 11.9529 93.6566 9.21692 89.4326 9.55292C83.1926 10.0809 79.3526 17.2809 80.0726 25.7289C80.6966 33.2649 83.9606 40.1769 91.0166 40.2729C95.4806 40.3209 97.2086 38.5449 97.2086 35.0409V30.0969C97.2086 26.5449 95.3366 26.2089 94.7606 26.2089V26.0169Z" fill="#F8F6F3"/>
<path d="M59.9046 10.8006C58.8966 9.36056 57.7446 9.16856 57.3126 9.16856V8.97656H62.8806L72.2406 36.8646C73.3926 40.3686 75.3606 40.7046 75.9366 40.7046V40.8966H67.9206V40.7046C68.3526 40.7046 69.4566 40.5126 69.4566 38.9766C69.4566 38.4486 69.3126 37.7766 69.0246 36.8646L67.0566 30.9606H54.2886L52.3206 36.8646C51.9366 38.0166 51.7926 38.7366 51.7926 39.2166C51.7926 40.5606 52.7526 40.7046 53.1846 40.7046V40.8966H47.8086V40.7046C48.4326 40.7046 50.1126 40.3686 51.2646 36.8646L59.9046 10.8006ZM60.6246 11.9046L54.5766 30.0006H66.7206L61.0086 12.8166C60.8646 12.4806 60.7686 12.1446 60.6246 11.9046Z" fill="#F8F6F3"/>
<path d="M23.7232 8.44922C23.7232 8.92922 24.5872 8.97722 25.2592 8.97722H44.3153C44.9873 8.97722 45.8513 8.92922 45.8513 8.44922H46.0432V13.9692H45.8513C45.8513 12.8652 44.7952 9.93722 40.6672 9.93722H36.2992V36.8652C36.2992 40.3692 38.1233 40.7052 38.6993 40.7052V40.8972H30.8272V40.7052C31.4032 40.7052 33.2753 40.3692 33.2753 36.8652V9.93722H28.9072C24.7792 9.93722 23.7232 12.8652 23.7232 13.9692H23.5312V8.44922H23.7232Z" fill="#F8F6F3"/>
<path d="M0.289062 36.3369V36.0009L3.31306 33.2649L3.64906 33.5049C4.08106 37.2489 6.81706 40.2729 10.8491 40.3209C14.4971 40.3209 18.2891 37.7769 18.2891 33.7449C18.2891 23.8569 1.39306 25.8729 1.39306 16.0809C1.39306 11.3289 5.52106 8.54492 10.3691 8.54492C14.0651 8.54492 17.3291 10.0809 19.9691 13.2009V13.4889L17.4731 16.0329L17.0891 15.7929C16.7531 12.2409 13.9211 9.55292 10.1771 9.55292C6.86506 9.55292 3.88906 11.4729 3.88906 14.6889C3.88906 23.3769 21.0731 21.6489 21.0731 32.2569C21.0731 38.0169 15.9371 41.3289 10.6571 41.3289C6.48106 41.3289 2.88106 39.5049 0.289062 36.3369Z" fill="#F8F6F3"/>
</g>
<defs>
<clipPath id="clip0_537_1130">
<rect width="123" height="42" fill="white"/>
</clipPath>
</defs>
</svg>
